<?xml version="1.0" encoding="utf-8"?>
<!-- Generator: Adobe Illustrator 18.1.1, SVG Export Plug-In . SVG Version: 6.00 Build 0)  -->
<svg version="1.1" id="Layer_1" xmlns="http://www.w3.org/2000/svg" xmlns:xlink="http://www.w3.org/1999/xlink" x="0px" y="0px"
	 viewBox="1124.8 6.6 250.8 238.6" enable-background="new 1124.8 6.6 250.8 238.6" xml:space="preserve">
<g>
	<path fill="#832C30" d="M1235.7,148.6c-10.8,6.5-30.4,12.6-44.5-8c-4.6-6.7,6.3-39.8,38.3-46c-22.5-10.2-45.3-0.4-59.8-1.6
		c-3.8-0.3,2.6-7.7,11.9-10.2c-10.1-3.9-14.5,0.3-20.1,2.5c-5.2-9.7-8.8-1.3-8-24.4c-5.7,5.7-9.6,12.9-11.9,20.9
		c-1.3,4.5-2.1,35.1-14.3,6c-2.8,46.8,49.4,113.6,100.7,74c2.1-1.6,7.6-2.8,7.6-2.8S1238.1,147.1,1235.7,148.6z"/>
	<path fill="#832C30" d="M1347.8,82.2c0,0,6.4-6.3,8.7-8.3c3.3-2.9,10,0.3,11.7,4.1c1.6,3.5-1.4,4.1-1.5,5.5c-0.2,3,3.6,8.5,4,11.5
		c0.3,1.9-1.4,7.6-1.4,7.6s-12-1.1-11.8-4.3c0.1-2.7,3.3-8.7,1.7-9.5c-1.6-0.8-1.2,11.9-6.5,12.3
		C1347.8,101.3,1347.8,82.2,1347.8,82.2z"/>
	<path fill="#832C30" d="M1317.1,26.3c0,0,5.5-12.1,2.6-14.3c-13.5-10.3-22.7,9.3-22.7,9.3s-1.9,4.6-25.8-8.7
		c14.7,17.1,11.7,11.5,11.9,15.7c-4.3,2.9-10.6,7.3-16.4,9.6c0.8,2.9,10.3-0.8,13.8-1.2c-1.3,2.9-6.4,3.9-7.9,5.9
		c-2.5,3.5,1.8,6.8-1.8,17.2c3.7,3.9,7.2-4.3,9.6-5.5c-3.2,15.9,6.3,24.8-8.5,27.8c-2.3,0.4,2.8,4.3,9.1,1.6
		c-8.8,11.6-10.6,33-10.6,33l37.9-16.5L1317.1,26.3z"/>
	<path fill="#832C30" d="M1284.8,164.5c6.2,10.4-11.5,45.8-11.5,47.1c-0.3,21.6,19.5,22.1,18.5,27.9c-0.5,2.4-10.1,2.7-17.7,1.5
		c0.1-9.7-20.4-30.6-21.1-41.8c-0.7-10.6,19.3-38,19.3-38S1283.1,161.7,1284.8,164.5z"/>
	<path fill="#AD1F23" d="M1254.8,243.2c5.8,1.2,12.3,1.4,15.4,0.7c2-0.5,1.1-3.6,0.5-4.1c-3.8-3.7-10.9-7.6-14.6-20.5
		c0.3-6.8,0.5-11.1,3-13.2c2.4-2,30-19.1,19.2-37.6c42.9-1.6,53.9-37.5,61.1-46.2c3.5-4.2,13.9-8.7,19.7-9.1
		c-5.7,6.3-4.9,12.5-6.2,13.1c-6.1,2.8-6.7,7.3-5.9,11.6c0.9,0.9,5.3,8.8,7.8,8c1.7-3.3,1.9-15.4,6-17.1c5.1-2.1,4.4-10.3,6.6-14.3
		c2.2-4,10-16.4-9.2-18c-0.7,0-5.5,1.2-5.5,0.5c0.5-12-17-39.5-16.2-41.6c1.9-4.9,15.1-2.7,19.9-6.4c2-1.6,4-7.3,3.1-9.7
		c-2.1-5.7-14.7-10.4-20.5-12.9c-1-0.4-4.2-13.9-17.1-14.8c-0.6-1.1,2-4.1,1.1-5c-3.1,1.4-11.6,6.7-12.9,12.1
		c-6.3,5-15.4,14.7-18,24.2c-6.4,23.6,7.2,36.9-16.4,62.9c-10.3,11.4-34.4,11.2-40.7,45.9c-4.4,24.1,16.7,35.2,12.3,42.3
		C1239.8,225.3,1255.3,233.8,1254.8,243.2z"/>
</g>
<g>
	<path fill="#F1F2F2" d="M1251.6,143c-0.4-0.5-0.7-0.9-1-1.1c-0.2-0.2-0.4-0.3-0.6-0.4c-0.1,0-0.3,0-0.5,0c-0.3,0.1-0.7,0.4-1.3,1.1
		l-0.9,1.1l7.6,6.6c0.2,0.2,0.4,0.4,0.6,0.4c0.1,0.1,0.3,0.1,0.5,0s0.4-0.2,0.6-0.4s0.5-0.5,0.9-0.9l0.6,0.5l-4.2,4.8l-0.6-0.5
		c0.6-0.8,0.9-1.4,0.9-1.6c0-0.2,0-0.4-0.1-0.6c-0.1-0.1-0.3-0.3-0.5-0.6l-7.6-6.6l-1.1,1.3c-0.7,0.8-0.8,1.7-0.3,2.7
		c0.1,0.3,0.3,0.6,0.5,1l0.1,0.2l-0.5,0.6l-2.2-3.2l7.4-8.5l2.2,3.1L1251.6,143z"/>
	<path fill="#F1F2F2" d="M1256.8,138.2c-0.4-1.1-0.4-2.4-0.1-3.9c1.1-0.4,2-0.6,2.8-0.6c1.3,0,2.8,0.6,4.5,1.8
		c0.6,0.4,1.1,0.8,1.6,1.2c0.5,0.4,0.8,0.7,1,0.8c0.2,0.1,0.3,0.2,0.5,0.2c0.1,0,0.2,0,0.4-0.1c0.1-0.1,0.2-0.1,0.3-0.2
		c0.1-0.1,0.2-0.1,0.2-0.2c0,0,0.1-0.1,0.1-0.1l0.5,0.5l-3.1,3.6l-0.5-0.5c0.2-0.3,0.3-0.5,0.4-0.7c0.1-0.2,0.1-0.3,0.1-0.5
		c0-0.2-0.3-0.6-0.9-1.1l-0.8-0.6c-1-0.8-1.7-1.4-2.1-1.7s-0.8-0.5-1.1-0.6c-0.3-0.1-0.6-0.2-0.9-0.3c-0.6-0.1-1.3-0.1-2.2,0
		c-0.1,1-0.2,1.8,0,2.5c0.2,1,0.8,1.8,1.7,2.6l2.2,1.9c0.3,0.2,0.5,0.4,0.7,0.6c0.2,0.1,0.3,0.2,0.5,0.2s0.3,0,0.5-0.2
		c0.1-0.1,0.4-0.3,0.6-0.5l0.5,0.5l-3.1,3.6l-0.5-0.4l0,0c0.2-0.3,0.3-0.5,0.4-0.7c0.1-0.2,0.1-0.3,0.1-0.5c0-0.2-0.3-0.5-0.7-0.9
		l-8-7c-0.5-0.4-0.8-0.6-1-0.6c-0.2,0-0.3,0.1-0.5,0.2c-0.1,0.1-0.3,0.3-0.6,0.5l-0.5-0.5l3.1-3.6l0.5,0.5c-0.2,0.2-0.3,0.5-0.4,0.6
		c-0.1,0.1-0.1,0.3-0.1,0.4c0,0.2,0.2,0.5,0.7,1L1256.8,138.2z"/>
	<path fill="#F1F2F2" d="M1274.2,129.4c0.2,1.2-0.2,2.5-1.2,3.7c-1,1.1-2.2,1.7-3.5,1.7s-2.5-0.5-3.7-1.5c-1.2-1-1.9-2.3-2.1-3.7
		c-0.2-1.4,0.2-2.6,1.1-3.7c0.7-0.8,1.4-1.3,2.2-1.5c0.7-0.1,1.3,0,1.9,0.5c0.7,0.6,1,1.5,0.9,2.7c-0.1,1.3-0.9,2.9-2.4,4.6
		c1.9,1.4,3.5,1.4,4.8-0.1c0.8-0.9,1.2-1.8,1.2-2.7L1274.2,129.4z M1266.8,131.6c1.3-1.6,1.9-3,1.6-4.2c-0.1-0.4-0.3-0.8-0.7-1.1
		c-0.5-0.4-1-0.5-1.6-0.2c-0.2,0.1-0.4,0.3-0.6,0.5c-0.2,0.2-0.3,0.5-0.4,0.8s-0.1,0.5-0.1,0.8c0,0.3,0.1,0.6,0.2,0.9
		c0.1,0.3,0.2,0.6,0.4,0.9C1265.8,130.7,1266.3,131.2,1266.8,131.6z"/>
	<path fill="#F1F2F2" d="M1255,173.5c0.3-0.2,0.6-0.6,1-1s0.7-1,0.8-1.5c0.1-0.5,0.1-1.1,0-1.6c-0.2-1-1-2.1-2.2-3.2
		c-1.2-1-2.2-1.6-3-1.8c-1.1-0.2-2.3,0.2-3.3,1.4c-1.3,1.5-1.6,2.6-1,3.4c0.2,0.2,0.4,0.5,0.7,0.7l9.6,8.3c0.4,0.3,0.7,0.5,0.9,0.7
		c0.2,0.1,0.5,0.2,0.7,0.1c0.2,0,0.4-0.1,0.7-0.3s0.6-0.5,1-0.9l0.5-0.5l0.8,0.7l-5.2,6.1l-0.8-0.7c0,0,0-0.1,0.1-0.1
		c0,0,0.1-0.2,0.2-0.4c0.1-0.2,0.2-0.4,0.3-0.6c0.1-0.2,0.1-0.4,0.1-0.6c0-0.3-0.4-0.8-1.1-1.4l-9.8-8.5c-0.6-0.5-1.1-0.8-1.3-0.8
		c-0.3,0-0.5,0.1-0.8,0.3c-0.2,0.1-0.5,0.4-0.9,0.8l-0.8-0.7l2.2-2.5c0.5-0.6,1-1.3,1.5-2c0.5-0.7,1-1.4,1.8-2.3
		c0.7-0.8,1.5-1.4,2.3-1.8c0.8-0.4,1.6-0.6,2.4-0.6c1.4,0,2.8,0.6,4.2,1.9s2.3,2.7,2.5,4.2c0.3,1.8-0.3,3.5-1.8,5.3
		c-0.3,0.4-0.8,0.8-1.4,1.2L1255,173.5z"/>
	<path fill="#F1F2F2" d="M1266.3,156.5c0-0.6-0.4-1.3-1.1-1.9c-0.3-0.3-0.7-0.4-1.2-0.2c-0.4,0.1-0.8,0.5-1.3,1
		c-1,1.2-1.2,2.2-0.4,2.9l7.4,6.4c0.3,0.2,0.5,0.4,0.7,0.5c0.2,0.1,0.5,0.1,0.7,0c0.5-0.1,1.3-0.8,2.4-2l0.8,0.7l-5.6,6.5l-0.8-0.7
		v0c0.6-0.8,0.9-1.4,0.8-1.6s-0.1-0.5-0.2-0.7s-0.4-0.4-0.7-0.7l-6.7-5.8c-0.7-0.6-1.2-0.9-1.5-0.9s-0.5,0-0.8,0.2
		c-0.2,0.1-0.5,0.3-0.8,0.6l-0.8-0.7l1.7-2c0.7-0.8,1.1-1.4,1.4-1.7c0.2-0.3,0.4-0.6,0.6-0.8c0.4-0.6,0.8-1.1,1.1-1.5
		c0.3-0.3,0.7-0.7,1-1c0.4-0.3,0.8-0.6,1.2-0.8c0.9-0.4,1.6-0.3,2.3,0.2c0.5,0.4,0.8,1.1,0.9,1.9c0.1,0.8,0,1.4-0.3,2.1
		L1266.3,156.5z"/>
	<path fill="#F1F2F2" d="M1271.4,147.2c0.1,0.3,0.3,0.5,0.5,0.7c0.2,0.2,0.7,0.4,1.3,0.4l-0.1,1c-0.8,0.6-1.6,0.9-2.4,0.8
		c-0.3,0-0.5-0.1-0.8-0.4c-0.3-0.2-0.4-0.6-0.6-1.1c-0.1-0.5-0.1-1,0-1.6c0.3-1.3,1-2.7,2.2-4c1.9-2.2,3.8-3,5.5-2.5
		c0.5,0.2,1,0.5,1.5,0.9l6.1,5.3c0.7,0.6,1.2,1,1.5,0.9s0.5-0.1,0.7-0.2c0.2-0.1,0.5-0.4,0.8-0.7l0.8,0.7l-2.1,2.4
		c-0.4,0.5-0.8,1-1.3,1.7c-1,1.3-1.7,2.4-2.3,3.1s-1.2,1.2-1.8,1.5c-0.6,0.3-1.2,0.6-1.8,0.6c-1.1,0.1-2.1-0.1-3-0.9
		c-0.9-0.8-1.4-2.2-1.2-4c0.1-2.2,1.3-4.6,3.4-7.1l-1.7-1.5c-1.3-1.1-2.8-0.8-4.4,0.9C1271.4,145.3,1271.1,146.3,1271.4,147.2z
		 M1279.3,145.7c-2.8,3.7-3.3,6.3-1.3,8c1,0.9,2.1,0.9,3.3,0.1c0.4-0.2,0.8-0.6,1.2-1.1c0.4-0.5,0.7-0.9,1-1.3
		c0.2-0.3,0.3-0.7,0.4-1c0-0.3,0-0.6-0.2-0.9c-0.2-0.3-0.5-0.6-0.9-0.9L1279.3,145.7z M1279.3,145.7L1279.3,145.7L1279.3,145.7
		L1279.3,145.7z"/>
	<path fill="#F1F2F2" d="M1283.7,133.4c-0.6-1.6-0.7-3.5-0.2-5.7c1.6-0.6,3-0.9,4.2-0.9c2,0,4.2,0.9,6.6,2.7
		c0.8,0.6,1.6,1.2,2.3,1.8c0.7,0.6,1.2,1,1.5,1.2c0.3,0.2,0.5,0.3,0.7,0.3s0.4,0,0.6-0.1c0.2-0.1,0.3-0.2,0.5-0.4
		c0.1-0.1,0.3-0.2,0.3-0.3c0,0,0.1-0.1,0.2-0.2l0.8,0.7l-4.6,5.3l-0.8-0.7c0.3-0.4,0.5-0.7,0.6-1s0.2-0.5,0.2-0.7
		c0-0.3-0.4-0.9-1.3-1.6l-1.1-1c-1.5-1.3-2.5-2.1-3.2-2.6c-0.6-0.4-1.2-0.7-1.6-0.9s-0.9-0.4-1.4-0.5c-0.9-0.2-2-0.1-3.3,0.1
		c-0.5,3.1,0.3,5.7,2.5,7.5l3.3,2.8c0.8,0.7,1.4,1.1,1.7,1.1c0.3,0,0.5,0,0.7-0.2c0.2-0.1,0.5-0.3,0.8-0.6l0.2-0.2l0.8,0.7l-4.6,5.3
		l-0.8-0.7c0,0,0-0.1,0.1-0.2c0,0,0.1-0.2,0.2-0.4s0.2-0.4,0.3-0.6c0.1-0.2,0.1-0.4,0.1-0.6c0-0.3-0.4-0.8-1.1-1.4l-6.9-6
		c-0.6-0.5-1-0.7-1.3-0.7c-0.2,0-0.5,0.1-0.7,0.3c-0.2,0.2-0.5,0.4-0.8,0.8l-0.8-0.7l3.1-3.6L1283.7,133.4z"/>
	<path fill="#F1F2F2" d="M1306.5,124.6c1.1-1.3,1.7-2.8,1.8-4.6l1-0.1c0.2,1.5,0,3.1-0.9,4.7c-0.3,0.5-0.6,1-1,1.4
		c-1.4,1.7-3.2,2.5-5.3,2.4c-1.9-0.1-3.8-0.8-5.5-2.3c-1.7-1.5-2.8-3.2-3.1-5.2c-0.3-2,0.2-3.9,1.6-5.6c0.7-0.8,1.6-1.5,2.6-2
		c0.1,0,0.2-0.1,0.3-0.2c0.2-0.5,0.2-1-0.1-1.4l0.6-0.7l4.2,3.6l-0.7,0.8c-2.2-1.3-4.2-1.1-5.7,0.7c-1,1.1-1.2,2.5-0.6,4
		c0.5,1.3,1.4,2.6,2.9,3.8c2.5,2.2,4.8,2.8,6.6,1.7C1305.7,125.4,1306.1,125,1306.5,124.6z"/>
	<path fill="#F1F2F2" d="M1297.7,105.3l-0.2-3.3l3.2-0.2l0.2,3.2L1297.7,105.3z M1311.8,118.8l0.2-0.4c0.2-0.3,0.3-0.6,0.4-0.8
		c0.1-0.2,0.1-0.4,0.1-0.6c0-0.3-0.4-0.8-1.1-1.4l-6.6-5.7c-0.7-0.6-1.2-0.9-1.5-0.9s-0.5,0.1-0.8,0.3c-0.2,0.2-0.5,0.4-0.9,0.8
		l-0.8-0.7l4.6-5.3l0.8,0.7c-0.3,0.4-0.5,0.7-0.6,1c-0.1,0.2-0.2,0.5-0.2,0.7c0,0.3,0.4,0.8,1.1,1.5l6.6,5.7
		c0.7,0.6,1.2,0.9,1.4,0.9c0.2,0,0.4,0,0.6-0.2c0.2-0.1,0.4-0.3,0.7-0.5l0.4-0.3l0.8,0.7l-4.6,5.4L1311.8,118.8z"/>
	<path fill="#F1F2F2" d="M1312.3,100.3c-0.6-1.6-0.7-3.5-0.2-5.7c1.6-0.6,3-0.9,4.2-0.9c2,0,4.2,0.9,6.6,2.7
		c0.8,0.6,1.6,1.2,2.3,1.8c0.7,0.6,1.2,1,1.5,1.2s0.5,0.3,0.7,0.3c0.2,0,0.4,0,0.6-0.1c0.2-0.1,0.3-0.2,0.5-0.4
		c0.1-0.1,0.3-0.2,0.3-0.3s0.1-0.1,0.2-0.2l0.8,0.7l-4.6,5.3l-0.8-0.7c0.3-0.4,0.5-0.7,0.6-1c0.1-0.2,0.2-0.5,0.2-0.7
		c0-0.3-0.4-0.9-1.3-1.6l-1.1-1c-1.5-1.3-2.5-2.1-3.2-2.6c-0.6-0.4-1.2-0.7-1.6-0.9c-0.4-0.2-0.9-0.4-1.4-0.5
		c-0.9-0.2-2-0.1-3.3,0.1c-0.5,3.1,0.3,5.7,2.5,7.5l3.3,2.8c0.8,0.7,1.4,1.1,1.7,1.1c0.3,0,0.5,0,0.7-0.2c0.2-0.1,0.5-0.3,0.8-0.6
		l0.2-0.2l0.8,0.7l-4.6,5.3l-0.8-0.7c0,0,0-0.1,0.1-0.2c0,0,0.1-0.2,0.2-0.4c0.1-0.2,0.2-0.4,0.3-0.6s0.1-0.4,0.1-0.6
		c0-0.3-0.4-0.8-1.1-1.4l-6.9-6c-0.6-0.5-1-0.7-1.3-0.7c-0.2,0-0.5,0.1-0.7,0.3c-0.2,0.2-0.5,0.4-0.8,0.8l-0.8-0.6l3.1-3.6
		L1312.3,100.3z"/>
	<path fill="#F1F2F2" d="M1337.3,88.8c0.1,1.6-0.2,3-1.3,4.2c-1.4,1.6-3.1,2.4-5.1,2.2c-1.8-0.1-3.5-0.9-5.2-2.3
		c-1.7-1.5-2.7-3.2-3.1-5.1c-0.4-2.1,0.1-4.1,1.7-5.9c0.4-0.5,0.9-1,1.4-1.6c1-1,1.6-1.6,1.9-1.9l2.2-2.5l0.8,0.7
		c-0.6,0.8-0.9,1.3-0.8,1.6c0,0.3,0.1,0.5,0.3,0.7c0.2,0.2,0.4,0.4,0.7,0.7l8.8,7.6c1.7,1.4,2.7,3.2,3.1,5.1c0.4,2.1-0.1,4-1.6,5.7
		c-0.7,0.8-1.6,1.5-2.7,1.9l-0.7-1.3c0.7-0.3,1.3-0.9,1.9-1.6s0.9-1.4,1.1-2.1s0.1-1.4-0.1-2.1c-0.4-1.2-1.3-2.4-2.7-3.7
		L1337.3,88.8z M1327.6,90.8c3.2,2.8,5.7,3.2,7.4,1.3c0.7-0.8,1-1.8,1-2.8c0-1-0.4-1.9-1.2-2.5l-5.3-4.6c-0.6-0.5-1.2-0.8-1.6-0.8
		c-0.8,0-1.6,0.6-2.6,1.6C1323.4,85.2,1324.1,87.8,1327.6,90.8z"/>
	<path fill="#F1F2F2" d="M1310.1,138.1c0.2-0.1,0.4-0.4,0.7-0.7c0.2-0.3,0.4-0.6,0.5-1c0.1-0.4,0.1-0.7,0-1.1
		c-0.2-0.7-0.7-1.4-1.5-2.2c-0.8-0.7-1.5-1.1-2.1-1.2c-0.8-0.2-1.5,0.1-2.3,1c-0.9,1-1.1,1.8-0.7,2.3c0.1,0.1,0.3,0.3,0.4,0.5
		l6.5,5.7c0.2,0.2,0.4,0.4,0.6,0.5c0.1,0.1,0.3,0.1,0.5,0.1c0.2,0,0.3-0.1,0.5-0.2c0.2-0.1,0.4-0.3,0.7-0.6l0.3-0.3l0.5,0.4
		l-3.6,4.1l-0.5-0.4c0,0,0,0,0-0.1s0.1-0.1,0.2-0.2c0.1-0.1,0.1-0.2,0.2-0.4c0-0.1,0.1-0.3,0.1-0.4c0-0.2-0.3-0.5-0.8-1l-6.7-5.8
		c-0.4-0.3-0.7-0.5-0.9-0.5c-0.2,0-0.3,0.1-0.5,0.2c-0.1,0.1-0.4,0.3-0.6,0.5l-0.6-0.5l1.5-1.7c0.3-0.4,0.7-0.9,1-1.3
		c0.3-0.4,0.7-1,1.2-1.5c0.5-0.5,1-1,1.5-1.2c0.5-0.3,1.1-0.4,1.6-0.4c0.9,0,1.9,0.4,2.9,1.3s1.5,1.8,1.7,2.9
		c0.2,1.2-0.2,2.4-1.2,3.6c-0.2,0.2-0.5,0.5-0.9,0.8L1310.1,138.1z"/>
	<path fill="#F1F2F2" d="M1315.3,132.7c-0.3-0.3-0.6-0.6-0.9-1c-0.3-0.3-0.5-0.7-0.7-1.1c-0.2-0.4-0.3-0.8-0.4-1.2s-0.1-0.8,0-1.3
		c0.1-0.9,0.5-1.8,1.2-2.5c1-1.2,2.2-1.7,3.7-1.7c1.3,0,2.5,0.5,3.6,1.5c1.1,1,1.8,2.1,2.1,3.4c0.3,1.4-0.1,2.7-1.1,3.9
		s-2.2,1.7-3.7,1.6C1317.6,134.2,1316.4,133.6,1315.3,132.7z M1321.1,132.6c0.3-0.1,0.5-0.3,0.8-0.6c0.2-0.3,0.4-0.6,0.5-0.9
		c0.1-0.3,0.1-0.6,0.1-0.9c0-0.3-0.1-0.6-0.2-0.9s-0.3-0.6-0.5-0.9c-0.3-0.5-0.7-0.9-1.2-1.3c-0.4-0.4-0.8-0.7-1.1-0.9
		s-0.6-0.4-0.9-0.5s-0.6-0.2-0.9-0.3c-0.3-0.1-0.6-0.1-0.9-0.1c-0.6,0-1.2,0.3-1.7,0.9c-0.9,1-0.9,2.2,0,3.6c0.3,0.5,0.8,1,1.4,1.5
		C1318.4,132.7,1319.9,133.2,1321.1,132.6z"/>
	<path fill="#F1F2F2" d="M1322.8,118.8c-0.4-1.1-0.5-2.4-0.1-3.9c1-0.4,2-0.6,2.8-0.6c1.3,0,2.8,0.6,4.5,1.8
		c0.5,0.4,1.1,0.8,1.6,1.2c0.5,0.4,0.8,0.7,1,0.8c0.2,0.1,0.3,0.2,0.5,0.2s0.2,0,0.4-0.1s0.2-0.2,0.3-0.2c0.1-0.1,0.2-0.1,0.2-0.2
		c0,0,0.1-0.1,0.1-0.1l0.5,0.5l-3.1,3.6l-0.5-0.5c0.2-0.3,0.3-0.5,0.4-0.7c0.1-0.2,0.1-0.3,0.1-0.5c0-0.2-0.3-0.6-0.9-1.1l-0.7-0.6
		c-1-0.9-1.7-1.4-2.1-1.7c-0.4-0.3-0.8-0.5-1.1-0.6c-0.3-0.1-0.6-0.2-1-0.3c-0.6-0.1-1.4-0.1-2.2,0c-0.3,2.1,0.2,3.8,1.7,5.1
		l2.2,1.9c0.6,0.5,0.9,0.7,1.1,0.8c0.2,0,0.3,0,0.5-0.1s0.3-0.2,0.5-0.4l0.1-0.1l0.5,0.5l-3.1,3.6l-0.5-0.4c0,0,0-0.1,0-0.1
		s0.1-0.1,0.1-0.2c0.1-0.1,0.1-0.2,0.2-0.4s0.1-0.3,0.1-0.4c0-0.2-0.3-0.5-0.7-0.9l-4.7-4.1c-0.4-0.3-0.7-0.5-0.8-0.5
		c-0.1,0-0.3,0.1-0.5,0.2c-0.1,0.1-0.3,0.3-0.6,0.5l-0.5-0.5l2.1-2.5L1322.8,118.8z"/>
	<path fill="#F1F2F2" d="M1339.4,110.5c0.3,1.2,0.3,2.4,0,3.6c-1,0.4-2,0.6-2.8,0.6c-1.3,0-2.8-0.6-4.5-1.8
		c-0.5-0.4-1.1-0.8-1.6-1.2c-0.5-0.4-0.8-0.7-1-0.8s-0.4-0.2-0.5-0.2c-0.1,0-0.3,0-0.4,0.1s-0.3,0.2-0.5,0.4l-0.5-0.5l2.9-3.3
		l0.5,0.5l-0.1,0.2c-0.1,0.2-0.2,0.4-0.3,0.5c0,0.1-0.1,0.3,0,0.4c0,0.2,0.3,0.5,0.9,1l0.7,0.6c0.7,0.6,1.3,1.1,1.8,1.5
		c0.5,0.4,1,0.7,1.5,0.9c0.9,0.4,2,0.5,3.2,0.3c0.3-2.1-0.2-3.8-1.7-5.1l-2.2-1.9c-0.6-0.5-1-0.8-1.1-0.8c-0.2,0-0.3,0-0.4,0.1
		c-0.1,0.1-0.3,0.2-0.5,0.4l-0.1,0.1l-0.5-0.5l2.9-3.3l0.5,0.5l0,0c-0.3,0.4-0.4,0.7-0.4,0.9c0.1,0.3,0.4,0.7,1,1.2l2.9,2.5
		c2,1.7,3.2,3.3,3.8,4.8c0.7,1.8,0.4,3.7-0.7,5.7l-0.8-0.4c0.6-1.3,0.8-2.5,0.6-3.6C1341.3,112.8,1340.6,111.7,1339.4,110.5z"/>
</g>
<g>
	<path fill="#832C30" d="M1292.4,184.7c0.4,0,0.7-0.1,0.8-0.2s0.1-0.2,0.1-0.3s0-0.2,0-0.4v-7.1c0-0.4,0-0.6-0.2-0.7
		c-0.1,0-0.3-0.1-0.8-0.1v-0.5h3.2v0.5c-0.4,0-0.7,0.1-0.8,0.1c-0.1,0.1-0.2,0.3-0.2,0.7v2.1c0.3-0.4,0.8-0.6,1.4-0.7
		c0.2,0,0.4,0,0.6,0s0.5,0,0.8,0.1s0.5,0.2,0.7,0.4s0.4,0.3,0.6,0.6c0.2,0.2,0.3,0.5,0.4,0.7c0.2,0.5,0.3,1.1,0.3,1.8
		c0,1-0.3,1.9-0.8,2.6c-0.4,0.5-0.8,0.8-1.4,1c-0.3,0.1-0.6,0.1-0.8,0.1c-0.3,0-0.7,0-1.1,0c-0.7-0.1-1.2-0.1-1.3-0.1h-1.5
		L1292.4,184.7L1292.4,184.7z M1294.6,183.4c0,0.3,0.1,0.6,0.3,0.8c0.2,0.2,0.7,0.3,1.4,0.3c0.6,0,1.1-0.3,1.5-0.9
		c0.3-0.5,0.4-1.3,0.4-2.2c0-1.3-0.3-2.2-0.9-2.7c-0.2-0.2-0.4-0.2-0.7-0.2c-0.3,0-0.5,0-0.8,0.1s-0.4,0.2-0.6,0.3
		c-0.4,0.3-0.6,0.7-0.6,1.1L1294.6,183.4L1294.6,183.4z"/>
	<path fill="#832C30" d="M1305.3,184.1c-0.4,0.7-1,1.2-1.8,1.6c-0.7-0.3-1.2-0.7-1.5-1.2c-0.5-0.7-0.9-1.7-1-3.1c0-0.4,0-0.9,0-1.3
		s0-0.7,0-0.9c0-0.2,0-0.3-0.1-0.3c0,0-0.1-0.1-0.2-0.2c-0.1,0-0.2,0-0.4,0v-0.5h2.9v0.5h-0.1c-0.2,0-0.3,0-0.4,0
		c-0.1,0-0.2,0-0.2,0.1c-0.1,0.1-0.1,0.4-0.1,0.9v0.7c0,0.6,0,1.1,0,1.5c0,0.4,0.1,0.8,0.2,1.1c0.2,0.6,0.6,1.2,1.2,1.7
		c1.2-0.7,1.8-1.7,1.8-3.1v-2c0-0.5,0-0.8-0.1-0.9c0-0.1-0.1-0.1-0.2-0.2c-0.1,0-0.2,0-0.4-0.1h-0.1V178h2.9v0.5l0,0
		c-0.3,0-0.5,0.1-0.6,0.2c-0.1,0.2-0.2,0.5-0.2,1v2.6c0,1.7-0.2,3.1-0.7,4c-0.6,1.1-1.6,1.8-3.2,2.1l-0.1-0.6c0.9-0.2,1.6-0.6,2-1.3
		C1304.9,186.1,1305.2,185.2,1305.3,184.1z"/>
	<path fill="#832C30" d="M1312.1,184.7c0.4,0,0.7-0.1,0.8-0.2s0.1-0.2,0.1-0.3s0-0.2,0-0.4v-6c0-0.4,0-0.6-0.1-0.7
		c-0.1-0.1-0.2-0.1-0.3-0.2s-0.3,0-0.5-0.1v-0.5h1.5c0.2,0,0.5,0,0.8,0c0.6,0,1.1-0.1,1.5-0.1s0.9,0,1.3,0.1s0.7,0.2,1,0.4
		c0.5,0.3,0.8,0.8,0.8,1.4c0,0.8-0.3,1.4-0.9,1.9c-0.2,0.1-0.4,0.3-0.7,0.3c1.1,0.2,1.9,0.6,2.2,1.4c0.1,0.2,0.1,0.5,0.1,0.8
		s0,0.6-0.2,1s-0.3,0.6-0.7,0.9c-0.7,0.6-1.6,0.8-2.8,0.8c-0.3,0-0.6,0-1,0c-0.7-0.1-1.2-0.1-1.5-0.1h-1.5V184.7L1312.1,184.7z
		 M1314.3,183.4c0,0.4,0.1,0.6,0.3,0.8c0.2,0.2,0.8,0.3,1.6,0.3c0.9,0,1.5-0.2,1.9-0.6c0.3-0.3,0.5-0.8,0.5-1.3
		c0-0.8-0.3-1.4-0.9-1.7c-0.2-0.1-0.4-0.2-0.7-0.2c-0.2,0-0.4,0-0.5,0h-0.4c-0.1,0-0.2,0-0.4,0s-0.2,0-0.3,0v-0.5l1.2-0.1
		c0.5,0,0.9-0.2,1.1-0.6c0.2-0.3,0.3-0.7,0.3-1.2c0-0.4-0.1-0.8-0.4-1c-0.3-0.3-0.8-0.4-1.6-0.4c-0.9,0-1.4,0.2-1.5,0.7
		c0,0.1,0,0.3,0,0.4L1314.3,183.4L1314.3,183.4z"/>
	<path fill="#832C30" d="M1323.1,179.2c0,0.1-0.1,0.2-0.1,0.4s0,0.3,0.2,0.5l-0.4,0.2c-0.4-0.1-0.8-0.2-1-0.6c0-0.1-0.1-0.2-0.1-0.4
		s0-0.3,0.2-0.5s0.3-0.3,0.5-0.5c0.5-0.3,1.2-0.4,2-0.4c1.3,0,2.1,0.4,2.5,1.1c0.1,0.2,0.1,0.5,0.1,0.8v3.6c0,0.4,0,0.7,0.1,0.8
		c0.1,0,0.2,0.1,0.3,0.2c0.1,0,0.3,0,0.5,0v0.5h-1.4c-0.3,0-0.6,0-1,0c-0.7,0-1.3,0.1-1.7,0.1s-0.7,0-1.1-0.1
		c-0.3-0.1-0.5-0.2-0.7-0.4c-0.4-0.3-0.6-0.8-0.6-1.3c0-0.6,0.3-1.1,1-1.6c0.8-0.6,2-0.9,3.5-0.9v-1c0-0.8-0.5-1.2-1.6-1.2
		C1323.7,178.6,1323.3,178.8,1323.1,179.2z M1325.9,181.4c-2.1,0.1-3.1,0.8-3.1,1.9c0,0.6,0.3,1,0.9,1.2c0.2,0,0.4,0.1,0.7,0.1
		s0.5,0,0.7,0c0.2,0,0.3-0.1,0.4-0.2c0.1-0.1,0.2-0.2,0.2-0.3s0-0.3,0-0.6V181.4z M1325.9,181.4L1325.9,181.4L1325.9,181.4
		L1325.9,181.4z"/>
	<path fill="#832C30" d="M1333.3,180.3c0.2-0.2,0.3-0.5,0.3-0.9c0-0.2-0.1-0.4-0.3-0.5c-0.1-0.1-0.4-0.1-0.7-0.1
		c-0.7,0-1.1,0.2-1.1,0.7v4.4c0,0.1,0,0.3,0,0.4c0,0.1,0.1,0.2,0.2,0.2c0.2,0.1,0.6,0.2,1.4,0.2v0.5h-3.9v-0.5l0,0
		c0.4,0,0.7-0.1,0.8-0.2s0.1-0.2,0.1-0.3s0-0.2,0-0.4v-4c0-0.4,0-0.7-0.1-0.8c-0.1-0.1-0.2-0.1-0.3-0.2c-0.1,0-0.3,0-0.5-0.1v-0.5
		h1.2c0.5,0,0.8,0,1,0c0.2,0,0.3,0,0.5,0c0.3,0,0.6,0,0.8,0s0.4,0,0.7,0s0.4,0.1,0.6,0.2c0.4,0.2,0.6,0.5,0.6,0.8
		c0,0.3-0.1,0.6-0.4,0.9c-0.2,0.2-0.5,0.4-0.8,0.5L1333.3,180.3z"/>
	<path fill="#832C30" d="M1335.8,184.7l0.2,0c0.1,0,0.3,0,0.4,0c0.1,0,0.2,0,0.2-0.1c0.1-0.1,0.1-0.4,0.1-0.8v-7
		c0-0.4,0-0.7-0.1-0.8s-0.2-0.1-0.3-0.1c-0.1,0-0.3,0-0.5,0v-0.5h2.2v8.5c0,0.4,0,0.6,0.2,0.8c0.1,0.1,0.3,0.1,0.7,0.2l0.3,0v0.5
		h-3.4L1335.8,184.7L1335.8,184.7z"/>
	<path fill="#832C30" d="M1339.8,184.7l0.2,0c0.1,0,0.3,0,0.4,0c0.1,0,0.2,0,0.2-0.1c0.1-0.1,0.1-0.4,0.1-0.8v-3.9
		c0-0.4,0-0.7-0.1-0.8c-0.1-0.1-0.2-0.1-0.3-0.1c-0.1,0-0.3,0-0.5,0v-0.5h3.2v0.5c-0.2,0-0.4,0-0.5,0s-0.2,0-0.3,0.1
		c-0.1,0.1-0.1,0.4-0.1,0.8v3.9c0,0.4,0,0.7,0.1,0.8c0,0.1,0.1,0.1,0.2,0.1c0.1,0,0.2,0,0.4,0.1l0.2,0v0.5h-3.2L1339.8,184.7
		L1339.8,184.7z M1340.3,175.8l1-1l1,1l-1,1L1340.3,175.8z"/>
	<path fill="#832C30" d="M1344.1,184.7h0.1c0.3,0,0.6-0.1,0.6-0.2s0.1-0.2,0.1-0.3s0-0.3,0-0.5v-4.2c0-0.3,0-0.5-0.1-0.6
		c-0.1-0.1-0.2-0.1-0.3-0.1s-0.3,0-0.5,0v-0.5h2.2v1.2c0.1-0.3,0.3-0.6,0.5-0.8c0.3-0.3,0.7-0.6,1.2-0.9c0.5,0.3,0.8,0.5,1.1,0.8
		c0.4,0.4,0.7,0.8,0.9,1.3c0.3-0.6,0.8-1.2,1.4-1.6c0.2-0.1,0.4-0.3,0.7-0.5c0.7,0.4,1.3,0.8,1.7,1.2c0.6,0.7,0.9,1.7,1,3
		c0,0.4,0,0.9,0,1.3s0,0.7,0,0.9c0,0.1,0,0.3,0.1,0.3c0,0,0.1,0.1,0.2,0.1c0.1,0,0.2,0,0.4,0.1l0.2,0v0.5h-3.2v-0.5
		c0.2,0,0.4,0,0.5-0.1s0.2,0,0.3-0.1c0.1-0.1,0.2-0.4,0.2-0.9v-0.9c0-1.1-0.1-1.9-0.3-2.5c-0.2-0.6-0.6-1.2-1.3-1.7
		c-0.5,0.4-0.8,0.8-1,1.2c-0.2,0.4-0.3,0.9-0.4,1.3c-0.1,0.7-0.1,1.3-0.1,2s0,1,0,1.1c0,0.1,0,0.2,0.1,0.2c0.1,0.1,0.3,0.1,0.7,0.2
		h0.1v0.5h-3.2v-0.5c0.2,0,0.4,0,0.5-0.1s0.2,0,0.3-0.1c0.1-0.1,0.1-0.4,0.1-0.9v-0.7c0-1.2,0-2.1-0.2-2.5s-0.3-0.8-0.4-1.1
		s-0.4-0.5-0.7-0.8c-0.5,0.3-0.9,0.7-1.2,1.1c-0.3,0.5-0.5,1.2-0.5,1.9v2c0,0.5,0,0.8,0.1,0.9s0.1,0.1,0.3,0.2s0.2,0,0.4,0.1h0.1
		v0.5h-3.2L1344.1,184.7L1344.1,184.7z"/>
	<path fill="#832C30" d="M1358.7,179.2c0,0.1-0.1,0.2-0.1,0.4s0,0.3,0.2,0.5l-0.4,0.2c-0.4-0.1-0.8-0.2-1-0.6c0-0.1-0.1-0.2-0.1-0.4
		s0-0.3,0.2-0.5s0.3-0.3,0.5-0.5c0.5-0.3,1.2-0.4,2-0.4c1.3,0,2.1,0.4,2.5,1.1c0.1,0.2,0.1,0.5,0.1,0.8v3.6c0,0.4,0,0.7,0.1,0.8
		c0.1,0,0.2,0.1,0.3,0.2c0.1,0,0.3,0,0.5,0v0.5h-1.4c-0.3,0-0.6,0-1,0c-0.7,0-1.3,0.1-1.7,0.1c-0.4,0-0.7,0-1.1-0.1
		c-0.3-0.1-0.5-0.2-0.7-0.4c-0.4-0.3-0.6-0.8-0.6-1.3c0-0.6,0.3-1.1,1-1.6c0.8-0.6,2-0.9,3.5-0.9v-1c0-0.8-0.5-1.2-1.6-1.2
		C1359.4,178.6,1359,178.8,1358.7,179.2z M1361.6,181.4c-2.1,0.1-3.1,0.8-3.1,1.9c0,0.6,0.3,1,0.9,1.2c0.2,0,0.4,0.1,0.7,0.1
		s0.5,0,0.7,0c0.2,0,0.3-0.1,0.4-0.2c0.1-0.1,0.2-0.2,0.2-0.3s0-0.3,0-0.6V181.4z M1361.6,181.4L1361.6,181.4L1361.6,181.4
		L1361.6,181.4z"/>
	<path fill="#832C30" d="M1367.1,179.3c0.3-0.7,1-1.3,1.9-1.7c0.7,0.3,1.2,0.7,1.5,1.2c0.5,0.7,0.9,1.7,1,3.1c0,0.4,0,0.9,0,1.3
		s0,0.7,0,0.9s0,0.2,0.1,0.3c0,0.1,0.1,0.1,0.2,0.1s0.2,0,0.3,0s0.1,0,0.2,0c0,0,0.1,0,0.1,0v0.5h-3.2v-0.5c0.2,0,0.4,0,0.5-0.1
		s0.2,0,0.3-0.1c0.1-0.1,0.1-0.4,0.1-0.9v-0.7c0-0.9,0-1.5,0-1.8c0-0.3-0.1-0.6-0.1-0.8s-0.1-0.4-0.2-0.6c-0.2-0.4-0.5-0.7-1-1.1
		c-1.2,0.7-1.8,1.8-1.8,3.1v2c0,0.5,0,0.8,0.1,0.9c0,0.1,0.1,0.1,0.3,0.2s0.2,0,0.4,0.1h0.1v0.5h-3.2v-0.5c0,0,0,0,0.1,0
		c0,0,0.1,0,0.2,0c0.1,0,0.2,0,0.3,0s0.2,0,0.2-0.1c0.1-0.1,0.1-0.3,0.1-0.8v-4.2c0-0.3,0-0.5-0.1-0.6c-0.1-0.1-0.2-0.1-0.3-0.1
		s-0.3,0-0.5,0v-0.5h2.2L1367.1,179.3L1367.1,179.3z"/>
	<path fill="#832C30" d="M1292.3,199c0.4,0,0.7-0.1,0.8-0.2c0.1-0.1,0.1-0.2,0.1-0.3s0-0.2,0-0.4V192c0-0.4,0-0.6-0.1-0.7
		s-0.2-0.1-0.3-0.2c-0.1,0-0.3,0-0.5-0.1v-0.5h1.5c0.2,0,0.5,0,0.8,0c0.6,0,1.1-0.1,1.5-0.1s0.9,0,1.3,0.1s0.7,0.2,1,0.4
		c0.5,0.3,0.8,0.8,0.8,1.4c0,0.8-0.3,1.4-0.9,1.9c-0.2,0.1-0.4,0.3-0.7,0.3c1.1,0.2,1.9,0.6,2.2,1.4c0.1,0.2,0.1,0.5,0.1,0.8
		s0,0.6-0.2,1s-0.3,0.6-0.7,0.9c-0.7,0.6-1.6,0.8-2.8,0.8c-0.3,0-0.6,0-1,0c-0.7-0.1-1.2-0.1-1.5-0.1h-1.5V199L1292.3,199z
		 M1294.5,197.7c0,0.4,0.1,0.6,0.3,0.8c0.2,0.2,0.8,0.3,1.6,0.3c0.9,0,1.5-0.2,1.9-0.6c0.3-0.3,0.5-0.8,0.5-1.3
		c0-0.8-0.3-1.4-0.9-1.7c-0.2-0.1-0.4-0.2-0.7-0.2s-0.4,0-0.5,0h-0.4c-0.1,0-0.2,0-0.4,0s-0.2,0-0.3,0v-0.5l1.2-0.1
		c0.5,0,0.9-0.2,1.1-0.6c0.2-0.3,0.3-0.7,0.3-1.2c0-0.4-0.1-0.8-0.4-1c-0.3-0.3-0.8-0.4-1.6-0.4c-0.9,0-1.4,0.2-1.5,0.7
		c0,0.1,0,0.3,0,0.4L1294.5,197.7L1294.5,197.7z"/>
	<path fill="#832C30" d="M1304.6,199.8c-0.7-0.4-1.3-0.8-1.6-1.2c-0.6-0.7-1-1.6-1.1-2.9c0-0.4,0-0.9,0-1.3s0-0.6,0-0.8
		s0-0.2-0.1-0.3c-0.1-0.1-0.3-0.2-0.7-0.3v-0.5h2.9v0.5c-0.4,0-0.6,0.1-0.7,0.2s-0.1,0.4-0.1,0.8s0,0.8,0,1.2s0,0.7,0.1,1
		c0,0.3,0.1,0.5,0.1,0.8s0.1,0.4,0.3,0.6c0.2,0.4,0.6,0.8,1.1,1.3c0.5-0.4,0.8-0.8,1-1.1s0.3-0.5,0.3-0.8c0-0.2,0.1-0.5,0.1-0.8
		c0-0.5,0.1-1,0.1-1.6s0-0.9,0-1.1s0-0.2-0.1-0.3c-0.1-0.1-0.3-0.2-0.7-0.2v-0.5h2.8v0.5c-0.4,0-0.6,0.1-0.6,0.2
		c0,0.1-0.1,0.2-0.1,0.3s0,0.4,0,0.8s0,0.8,0,1.3c0,0.4-0.1,0.8-0.2,1.2s-0.2,0.7-0.3,0.9c-0.1,0.2-0.3,0.5-0.5,0.7
		C1305.9,198.9,1305.4,199.3,1304.6,199.8z"/>
	<path fill="#832C30" d="M1309.5,199c0.2,0,0.3,0,0.4-0.1c0.1,0,0.2-0.1,0.2-0.1c0.1-0.1,0.1-0.4,0.1-0.9v-4.7h-1v-0.5
		c0.5-0.1,0.9-0.1,1-0.2l0,0c0.1-0.1,0.1-0.4,0.2-0.8s0.1-0.7,0.1-0.9l0.8-0.3v2.1h2.1v0.7h-2.1v4.7c0,0.3,0,0.6,0.1,0.7
		c0,0.1,0.1,0.1,0.2,0.2s0.2,0.1,0.3,0.1c0.2,0,0.6,0,1.2,0v0.5h-3.7L1309.5,199L1309.5,199z"/>
	<path fill="#832C30" d="M1314.5,199c0.2,0,0.3,0,0.4-0.1c0.1,0,0.2-0.1,0.2-0.1c0.1-0.1,0.1-0.4,0.1-0.9v-4.7h-1v-0.5
		c0.5-0.1,0.9-0.1,1-0.2l0,0c0.1-0.1,0.1-0.4,0.2-0.8s0.1-0.7,0.1-0.9l0.8-0.3v2.1h2.1v0.7h-2.1v4.7c0,0.3,0,0.6,0.1,0.7
		c0,0.1,0.1,0.1,0.2,0.2s0.2,0.1,0.3,0.1c0.2,0,0.6,0,1.2,0v0.5h-3.7L1314.5,199L1314.5,199z"/>
	<path fill="#832C30" d="M1324.8,198.6c-0.5,0.6-1.3,1-2.4,1c-1,0-1.8-0.3-2.4-1s-0.8-1.5-0.8-2.5c0-1.1,0.3-2,0.9-2.7
		c0.6-0.7,1.4-1,2.3-1c0.7,0,1.3,0.1,1.7,0.4c0.4,0.3,0.6,0.7,0.6,1.2c0,0.6-0.3,1.2-0.9,1.6c-0.7,0.5-1.9,0.8-3.4,0.8
		c0.1,1.6,0.8,2.4,2.1,2.4c0.8,0,1.4-0.2,1.9-0.5L1324.8,198.6z M1320.4,195.8c1.4,0,2.3-0.3,2.8-1c0.2-0.2,0.2-0.5,0.2-0.8
		c0-0.4-0.2-0.7-0.6-0.9c-0.1,0-0.3-0.1-0.5-0.1c-0.2,0-0.4,0-0.6,0.1c-0.1,0-0.3,0.2-0.4,0.3c-0.1,0.1-0.2,0.3-0.3,0.5
		s-0.2,0.4-0.2,0.6C1320.5,194.9,1320.4,195.3,1320.4,195.8z"/>
	<path fill="#832C30" d="M1330.4,194.5c0.2-0.2,0.3-0.5,0.3-0.9c0-0.2-0.1-0.4-0.3-0.5c-0.1-0.1-0.4-0.1-0.7-0.1
		c-0.7,0-1.1,0.2-1.1,0.7v4.4c0,0.1,0,0.3,0,0.4c0,0.1,0.1,0.2,0.2,0.2c0.2,0.1,0.6,0.2,1.4,0.2v0.5h-3.9V199l0,0
		c0.4,0,0.7-0.1,0.8-0.2c0.1-0.1,0.1-0.2,0.1-0.3s0-0.2,0-0.4v-4c0-0.4,0-0.7-0.1-0.8s-0.2-0.1-0.3-0.2s-0.3,0-0.5-0.1v-0.5h1.2
		c0.5,0,0.8,0,1,0s0.3,0,0.5,0c0.3,0,0.6,0,0.8,0c0.2,0,0.4,0,0.7,0c0.2,0,0.4,0.1,0.6,0.2c0.4,0.2,0.6,0.5,0.6,0.8
		c0,0.3-0.1,0.6-0.4,0.9c-0.2,0.2-0.5,0.4-0.8,0.5L1330.4,194.5z"/>
	<path fill="#832C30" d="M1333,199c0.4,0,0.7-0.1,0.8-0.2s0.1-0.2,0.1-0.3s0-0.2,0-0.4v-7.1c0-0.4,0-0.6-0.2-0.7
		c-0.1,0-0.3-0.1-0.8-0.1v-0.5h3.2v0.5c-0.4,0-0.7,0.1-0.8,0.1c-0.1,0.1-0.2,0.3-0.2,0.7v2.1c0.3-0.4,0.8-0.6,1.4-0.7
		c0.2,0,0.4,0,0.6,0s0.5,0,0.8,0.1s0.5,0.2,0.7,0.4s0.4,0.3,0.6,0.6c0.2,0.2,0.3,0.5,0.4,0.7c0.2,0.5,0.3,1.1,0.3,1.8
		c0,1-0.3,1.9-0.8,2.6c-0.4,0.5-0.8,0.8-1.4,1c-0.3,0.1-0.6,0.1-0.8,0.1c-0.3,0-0.7,0-1.1,0c-0.7-0.1-1.2-0.1-1.3-0.1h-1.5L1333,199
		L1333,199z M1335.2,197.7c0,0.3,0.1,0.6,0.3,0.8c0.2,0.2,0.7,0.3,1.4,0.3c0.6,0,1.1-0.3,1.5-0.9c0.3-0.5,0.4-1.3,0.4-2.2
		c0-1.3-0.3-2.2-0.9-2.7c-0.2-0.2-0.4-0.2-0.7-0.2s-0.5,0-0.8,0.1c-0.2,0.1-0.4,0.2-0.6,0.3c-0.4,0.3-0.6,0.7-0.6,1.1V197.7
		L1335.2,197.7z"/>
	<path fill="#832C30" d="M1344.3,199.8c-0.7-0.4-1.3-0.8-1.6-1.2c-0.6-0.7-1-1.6-1.1-2.9c0-0.4,0-0.9,0-1.3s0-0.6,0-0.8
		s0-0.2-0.1-0.3c-0.1-0.1-0.3-0.2-0.7-0.3v-0.5h2.9v0.5c-0.4,0-0.6,0.1-0.7,0.2c-0.1,0.1-0.1,0.4-0.1,0.8s0,0.8,0,1.2s0,0.7,0.1,1
		c0,0.3,0.1,0.5,0.1,0.8c0,0.2,0.1,0.4,0.3,0.6c0.2,0.4,0.6,0.8,1.1,1.3c0.5-0.4,0.8-0.8,1-1.1s0.3-0.5,0.3-0.8
		c0-0.2,0.1-0.5,0.1-0.8c0-0.5,0.1-1,0.1-1.6s0-0.9,0-1.1s0-0.2-0.1-0.3c-0.1-0.1-0.3-0.2-0.7-0.2v-0.5h2.8v0.5
		c-0.4,0-0.6,0.1-0.6,0.2s-0.1,0.2-0.1,0.3s0,0.4,0,0.8s0,0.8,0,1.3c0,0.4-0.1,0.8-0.2,1.2c-0.1,0.4-0.2,0.7-0.3,0.9
		s-0.3,0.5-0.5,0.7C1345.6,198.9,1345.1,199.3,1344.3,199.8z"/>
	<path fill="#832C30" d="M1353.1,194.5c0.2-0.2,0.3-0.5,0.3-0.9c0-0.2-0.1-0.4-0.3-0.5c-0.1-0.1-0.4-0.1-0.7-0.1
		c-0.7,0-1.1,0.2-1.1,0.7v4.4c0,0.1,0,0.3,0,0.4c0,0.1,0.1,0.2,0.2,0.2c0.2,0.1,0.6,0.2,1.4,0.2v0.5h-3.9V199l0,0
		c0.4,0,0.7-0.1,0.8-0.2s0.1-0.2,0.1-0.3s0-0.2,0-0.4v-4c0-0.4,0-0.7-0.1-0.8c-0.1-0.1-0.2-0.1-0.3-0.2c-0.1,0-0.3,0-0.5-0.1v-0.5
		h1.2c0.5,0,0.8,0,1,0c0.2,0,0.3,0,0.5,0c0.3,0,0.6,0,0.8,0c0.2,0,0.4,0,0.7,0s0.4,0.1,0.6,0.2c0.4,0.2,0.6,0.5,0.6,0.8
		c0,0.3-0.1,0.6-0.4,0.9c-0.2,0.2-0.5,0.4-0.8,0.5L1353.1,194.5z"/>
</g>
</svg>
